<svg xmlns="http://www.w3.org/2000/svg" xmlns:xlink="http://www.w3.org/1999/xlink" width="500" zoomAndPan="magnify" viewBox="0 0 375 374.999991" height="500" preserveAspectRatio="xMidYMid meet" version="1.0"><defs><g/><clipPath id="0ac5b1e293"><path d="M 54.558594 214 L 98 214 L 98 264 L 54.558594 264 Z M 54.558594 214 " clip-rule="nonzero"/></clipPath><clipPath id="b7a7e387aa"><rect x="0" width="177" y="0" height="174"/></clipPath><clipPath id="0ec3fafd99"><rect x="0" width="174" y="0" height="22"/></clipPath><clipPath id="081a085dee"><path d="M 243 162.855469 L 260 162.855469 L 260 188 L 243 188 Z M 243 162.855469 " clip-rule="nonzero"/></clipPath><clipPath id="4605f30264"><path d="M 231.863281 190 L 261.113281 190 L 261.113281 195.855469 L 231.863281 195.855469 Z M 231.863281 190 " clip-rule="nonzero"/></clipPath></defs><g clip-path="url(#0ac5b1e293)"><path fill="#1b2c44" d="M 68.847656 254.621094 C 67.832031 253.46875 67.222656 252.90625 67.023438 252.933594 C 64.964844 253.246094 63.367188 253.195312 62.222656 252.777344 C 61.730469 252.753906 60.839844 252.023438 59.554688 250.589844 C 57.164062 250.386719 55.832031 250.09375 55.566406 249.710938 C 55.132812 249.320312 55 248.90625 55.164062 248.472656 C 55.1875 248.242188 55.816406 247.855469 57.058594 247.308594 C 57.238281 247.15625 57.316406 246.980469 57.285156 246.785156 C 57.535156 246.691406 56.78125 245.824219 55.03125 244.179688 C 54.773438 243.824219 54.601562 243.269531 54.519531 242.523438 C 54.464844 241.980469 54.582031 241.59375 54.871094 241.367188 C 56.234375 241.460938 56.835938 241.386719 56.675781 241.140625 C 56.601562 237.921875 57.175781 236.15625 58.398438 235.847656 C 58.722656 235.804688 58.980469 235.984375 59.179688 236.390625 C 59.855469 239.660156 60.417969 241.441406 60.867188 241.722656 C 61.671875 242.757812 62.378906 242.949219 62.976562 242.289062 C 63.605469 241.390625 63.871094 240.492188 63.773438 239.585938 C 63.882812 239.285156 63.414062 238.515625 62.375 237.285156 C 62.171875 236.839844 62.089844 236.371094 62.121094 235.875 C 62.261719 234.464844 62.636719 233.601562 63.25 233.277344 C 63.605469 232.886719 64.832031 233.324219 66.929688 234.59375 C 67.210938 234.851562 67.988281 234.273438 69.261719 232.855469 L 71.863281 234.613281 C 72.382812 234.730469 72.800781 234.492188 73.117188 233.890625 C 73.601562 232.65625 73.542969 231.667969 72.941406 230.929688 C 73.109375 230.640625 71.8125 230.453125 69.050781 230.355469 C 68.527344 230.167969 68.097656 229.773438 67.757812 229.171875 C 67.382812 228.804688 67.503906 227.714844 68.113281 225.902344 L 66.054688 222.660156 C 65.820312 221.738281 65.914062 220.878906 66.332031 220.085938 L 68.382812 218.230469 C 68.84375 216.027344 69.175781 215.003906 69.378906 215.164062 C 70.136719 214.644531 71.203125 214.359375 72.574219 214.308594 C 78.890625 214.375 84.332031 216.105469 88.898438 219.496094 C 95.570312 224.8125 98.296875 229.457031 97.078125 233.433594 C 93.511719 246.554688 88.148438 256.652344 80.988281 263.734375 Z M 68.847656 254.621094 " fill-opacity="1" fill-rule="nonzero"/></g><path fill="#1b2c44" d="M 76.621094 218.332031 C 73.957031 214.585938 73.261719 209.839844 74.53125 204.089844 C 74.996094 202.140625 75.566406 200.75 76.234375 199.921875 C 76.289062 199.644531 77.492188 198.480469 79.847656 196.429688 L 82.457031 193.199219 C 83.527344 192.371094 84.617188 192.152344 85.722656 192.535156 C 86.023438 192.660156 86.371094 192.894531 86.773438 193.242188 C 88.667969 195.371094 89.949219 196.578125 90.625 196.863281 C 91.289062 197.375 93.261719 197.957031 96.546875 198.605469 C 97.21875 198.859375 97.804688 199.285156 98.300781 199.890625 C 101.097656 203.109375 101.6875 210.027344 100.066406 220.644531 C 99.320312 226.03125 96.8125 231.5 92.542969 237.050781 Z M 76.621094 218.332031 " fill-opacity="1" fill-rule="nonzero"/><path fill="#1b2c44" d="M 86.183594 196.789062 C 86.085938 196.683594 86.023438 196.597656 85.988281 196.539062 C 85.941406 196.460938 85.894531 196.367188 85.847656 196.253906 Z M 86.183594 196.789062 " fill-opacity="1" fill-rule="nonzero"/><path fill="#1b2c44" d="M 86.675781 196.3125 C 85.714844 195.871094 85.152344 195.125 84.988281 194.070312 L 86.019531 189.160156 C 86.257812 187.527344 86.292969 186.527344 86.117188 186.15625 C 85.988281 185.773438 85.773438 185.648438 85.464844 185.773438 C 84.285156 186.960938 83.703125 187.441406 83.726562 187.210938 C 83.394531 187.019531 83.195312 186.429688 83.128906 185.433594 C 83.101562 183.757812 83.355469 182.386719 83.894531 181.316406 C 84.230469 180.515625 84.921875 180.003906 85.96875 179.785156 C 86.113281 179.652344 86.207031 179.445312 86.25 179.164062 C 86.304688 178.75 86.265625 178.28125 86.136719 177.753906 C 85.382812 175.636719 85.039062 174.523438 85.105469 174.40625 C 85.003906 173.71875 85.035156 172.933594 85.199219 172.046875 C 86.117188 167.921875 88.367188 166.355469 91.941406 167.347656 C 92.792969 167.578125 93.5 167.957031 94.054688 168.488281 L 97.027344 172.503906 C 97.460938 173.230469 97.804688 173.910156 98.054688 174.539062 C 99.515625 178.757812 100.40625 181.097656 100.722656 181.5625 C 101.15625 182.597656 102.523438 184.898438 104.820312 188.464844 C 105.164062 189.058594 105.402344 189.546875 105.539062 189.925781 C 106.492188 192.035156 106.109375 195.824219 104.394531 201.292969 Z M 86.675781 196.3125 " fill-opacity="1" fill-rule="nonzero"/><path fill="#1b2c44" d="M 91.453125 171.492188 C 91.09375 170.804688 90.933594 169.792969 90.972656 168.460938 L 92.144531 163.898438 C 91.574219 160.394531 91.414062 158.394531 91.664062 157.894531 C 91.570312 157.65625 92.050781 156.484375 93.101562 154.375 C 93.355469 150.925781 93.628906 148.988281 93.917969 148.570312 C 94.351562 147.285156 94.988281 146.40625 95.835938 145.933594 C 96.445312 145.683594 97.054688 145.773438 97.675781 146.199219 C 97.976562 146.371094 98.394531 146.921875 98.925781 147.847656 C 99.519531 148.078125 100.25 148.753906 101.113281 149.882812 C 101.332031 150.0625 101.648438 150.226562 102.0625 150.371094 C 111.296875 151.625 115.90625 152.546875 115.886719 153.132812 C 118.199219 154.207031 119.636719 155.847656 120.203125 158.066406 C 120.730469 159.539062 120.871094 161.398438 120.621094 163.636719 C 118.984375 176.753906 117.898438 184.359375 117.359375 186.453125 C 116.515625 191.210938 114.988281 195.195312 112.777344 198.398438 C 110.488281 201.761719 108.019531 203.027344 105.375 202.195312 C 101.804688 200.203125 99.34375 196.875 97.988281 192.199219 Z M 91.453125 171.492188 " fill-opacity="1" fill-rule="nonzero"/><path fill="#1b2c44" d="M 98.089844 149.25 C 98.710938 147.691406 98.921875 146.136719 98.632812 144.597656 C 98.558594 144.191406 98.417969 143.917969 98.253906 143.808594 C 97.242188 143.15625 96.675781 142.714844 96.589844 142.421875 C 96.234375 141.847656 95.988281 141.050781 95.996094 140.03125 C 96.015625 137.613281 96.625 135.402344 97.683594 133.402344 C 97.898438 132.996094 98.148438 132.847656 98.425781 132.960938 C 99.195312 134.050781 99.59375 134.441406 99.613281 134.128906 C 99.710938 134.398438 99.976562 133.347656 100.523438 130.992188 C 100.621094 130.570312 100.851562 130.167969 101.09375 129.746094 C 101.558594 128.945312 102.203125 128.492188 103.046875 128.511719 C 103.78125 128.53125 104.339844 128.820312 104.734375 129.265625 C 103.570312 130.828125 103.210938 132.207031 103.832031 133.3125 C 104.292969 134.128906 105.078125 134.171875 105.921875 133.429688 C 106.285156 133.105469 106.441406 132.445312 106.496094 131.558594 C 105.878906 128.710938 105.828125 126.996094 105.996094 126.300781 C 106.4375 124.492188 106.878906 123.226562 107.789062 122.75 C 108.246094 122.515625 108.792969 122.726562 109.085938 123.355469 C 110.5625 126.550781 111.199219 128.082031 111.28125 127.828125 C 111.835938 128.425781 112.335938 128.523438 112.765625 128.09375 C 113.074219 127.789062 113.171875 127.226562 113.082031 126.425781 C 113.234375 126.476562 112.667969 124.894531 111.652344 121.589844 C 111.421875 120.84375 111.59375 120.117188 111.859375 119.46875 C 112.21875 118.582031 112.855469 118.105469 113.789062 118.023438 C 114.441406 117.964844 115.460938 118.550781 116.851562 119.804688 C 117.089844 119.921875 117.320312 119.851562 117.507812 119.570312 C 117.75 119.199219 118.050781 118.511719 118.296875 117.488281 C 119.617188 112 120.332031 109.003906 120.492188 108.492188 C 120.722656 107.769531 120.890625 107.914062 121.183594 107.304688 C 123.964844 101.46875 123.105469 116.949219 123.347656 137.417969 C 123.425781 143.980469 122.109375 148.128906 121.835938 151.242188 C 121.753906 152.132812 121.449219 153.304688 120.707031 154.742188 Z M 98.089844 149.25 " fill-opacity="1" fill-rule="nonzero"/><path fill="#1b2c44" d="M 123.117188 142.695312 L 122.738281 272.992188 L 66.285156 272.910156 L 66.796875 253.46875 L 74.828125 253.492188 L 75.496094 232.0625 L 94.5625 232.40625 L 94.742188 206.59375 L 95.363281 191.472656 L 112.09375 190.726562 L 112.5625 164.175781 L 120.085938 163.257812 L 119.867188 142.777344 L 123.117188 142.695312 " fill-opacity="1" fill-rule="nonzero"/><path fill="#1b2c44" d="M 121.390625 143.660156 L 108.417969 142.679688 C 107.039062 142.609375 105.761719 142.777344 104.578125 143.1875 C 103.613281 143.429688 102.9375 144.023438 102.550781 144.972656 C 102.304688 145.421875 102.375 146.515625 102.761719 148.253906 C 102.753906 148.457031 102.683594 148.640625 102.542969 148.808594 C 102.296875 149.101562 102 149.152344 101.652344 148.96875 L 100.226562 146.988281 C 99.921875 146.675781 99.632812 146.59375 99.363281 146.738281 C 98.980469 146.972656 98.8125 147.28125 98.867188 147.664062 C 98.878906 147.992188 99.207031 148.707031 99.851562 149.808594 C 99.90625 149.957031 99.910156 150.082031 99.867188 150.175781 C 99.90625 150.421875 99.273438 150.675781 97.972656 150.9375 C 97.777344 151.050781 97.652344 151.277344 97.605469 151.609375 C 97.570312 152.046875 97.789062 152.445312 98.265625 152.800781 C 98.398438 152.960938 99.230469 153.25 100.765625 153.671875 C 101.042969 153.777344 101.226562 153.902344 101.3125 154.046875 C 101.410156 154.183594 101.4375 154.378906 101.390625 154.640625 C 100.703125 156.171875 100.480469 157.074219 100.714844 157.34375 C 101.15625 158.339844 101.902344 158.96875 102.953125 159.234375 C 103.667969 159.46875 104.140625 159.230469 104.371094 158.515625 C 104.515625 158.148438 104.601562 157.800781 104.636719 157.480469 L 104.964844 152.785156 C 105.140625 152.035156 105.472656 151.648438 105.964844 151.636719 C 106.347656 151.621094 106.644531 151.890625 106.851562 152.441406 L 107.488281 156.398438 C 107.660156 157.011719 107.964844 157.429688 108.398438 157.65625 C 108.65625 157.757812 108.929688 157.75 109.207031 157.636719 L 110.734375 156.382812 C 110.984375 156.21875 111.296875 156.136719 111.671875 156.132812 C 111.890625 156.140625 112.105469 156.226562 112.308594 156.382812 C 112.410156 156.417969 112.726562 156.832031 113.253906 157.628906 C 113.453125 157.804688 113.71875 157.933594 114.050781 158.011719 C 115.363281 158.285156 117.574219 158.441406 120.683594 158.484375 Z M 121.390625 143.660156 " fill-opacity="1" fill-rule="nonzero"/><path fill="#1b2c44" d="M 102.921875 145.457031 C 103.015625 144.507812 103.695312 143.84375 104.957031 143.460938 C 105.484375 143.296875 106.597656 143.148438 108.289062 143.023438 C 109.601562 142.929688 110.929688 142.898438 112.28125 142.929688 C 115.265625 142.964844 117.257812 143.003906 118.261719 143.042969 C 118.367188 143.039062 119.207031 143.097656 120.78125 143.21875 C 120.917969 143.226562 121.058594 143.253906 121.195312 143.300781 C 121.675781 143.425781 121.753906 143.832031 121.433594 144.511719 C 121.066406 145.007812 120.539062 145.394531 119.859375 145.667969 Z M 102.921875 145.457031 " fill-opacity="1" fill-rule="nonzero"/><path fill="#1b2c44" d="M 102.746094 145.515625 C 102.671875 143.574219 104.707031 142.792969 108.914062 142.726562 C 112.101562 142.679688 114.160156 142.722656 115.308594 142.675781 C 116.785156 142.613281 117.738281 142.722656 117.832031 142.722656 C 120.824219 142.699219 121 143.148438 121.144531 143.171875 C 122.996094 143.5 123.277344 144.085938 121.972656 145.003906 Z M 102.746094 145.515625 " fill-opacity="1" fill-rule="nonzero"/><path fill="#1b2c44" d="M 114.109375 184.710938 C 113.742188 184.640625 113.203125 184.429688 112.492188 184.082031 C 112.015625 183.882812 111.121094 183.320312 109.8125 182.386719 C 109.53125 182.21875 109.222656 182.105469 108.890625 182.050781 C 108.566406 182.003906 108.210938 182.0625 107.824219 182.21875 C 106.519531 183.085938 105.804688 183.488281 105.675781 183.421875 C 105.046875 183.554688 104.539062 183.46875 104.152344 183.164062 C 103.75 182.863281 103.488281 182.449219 103.363281 181.929688 C 103.023438 178.515625 102.734375 176.726562 102.488281 176.574219 C 101.941406 175.335938 101.316406 174.652344 100.613281 174.519531 C 99.933594 174.359375 99.476562 174.542969 99.242188 175.066406 C 99.136719 174.890625 99.011719 176.09375 98.863281 178.679688 C 98.808594 179.011719 98.671875 179.300781 98.453125 179.546875 C 97.777344 180.191406 96.988281 180.320312 96.085938 179.9375 C 95.660156 179.738281 95.339844 179.371094 95.125 178.839844 L 94.597656 176.089844 C 94.492188 175.914062 94.339844 175.75 94.136719 175.597656 C 92.976562 175.03125 92.285156 174.578125 92.058594 174.238281 C 91.574219 173.65625 91.394531 173.105469 91.519531 172.585938 C 91.582031 172.386719 91.710938 172.226562 91.914062 172.101562 C 93.042969 171.734375 93.570312 171.46875 93.496094 171.304688 L 93.296875 169.175781 C 93.296875 168.851562 93.382812 168.609375 93.558594 168.449219 C 93.683594 168.332031 93.882812 168.277344 94.152344 168.289062 C 94.328125 168.277344 94.839844 168.4375 95.691406 168.761719 C 95.835938 168.796875 95.941406 168.769531 96.011719 168.679688 C 95.644531 165.890625 95.582031 164.417969 95.820312 164.265625 C 96.078125 163.414062 96.796875 162.863281 97.980469 162.609375 C 98.582031 162.453125 99.261719 162.414062 100.023438 162.492188 C 103.808594 163.203125 106.546875 163.578125 108.246094 163.613281 L 120.773438 162.695312 C 121.101562 162.726562 121.25 162.914062 121.226562 163.253906 C 120.828125 164.550781 120.523438 165.332031 120.308594 165.59375 Z M 114.109375 184.710938 " fill-opacity="1" fill-rule="nonzero"/><path fill="#1b2c44" d="M 97.140625 205.035156 C 95.109375 204.613281 93.875 204.859375 93.433594 205.773438 C 93.179688 206.082031 93.039062 206.742188 93.007812 207.75 C 93.386719 210.9375 93.476562 212.550781 93.285156 212.585938 C 93 213.558594 92.386719 214.011719 91.449219 213.945312 C 90.84375 213.78125 90.378906 213.410156 90.058594 212.824219 C 89.507812 210.28125 88.949219 208.65625 88.382812 207.941406 C 88.132812 207.449219 87 206.132812 84.984375 203.988281 C 84.554688 203.394531 84.269531 202.828125 84.125 202.285156 C 83.902344 201.378906 84.027344 200.710938 84.488281 200.277344 C 84.539062 200.0625 85.453125 199.742188 87.234375 199.320312 C 87.601562 199.15625 87.867188 198.941406 88.019531 198.675781 C 88.15625 198.480469 88.199219 198.1875 88.148438 197.796875 C 87.679688 196.488281 87.441406 195.507812 87.441406 194.863281 C 87.382812 194.199219 87.4375 193.621094 87.605469 193.136719 C 87.707031 192.84375 87.871094 192.695312 88.097656 192.6875 C 89.457031 193.398438 90.289062 193.496094 90.601562 192.980469 C 90.90625 192.972656 91.210938 191.691406 91.53125 189.132812 C 91.71875 188.617188 91.96875 188.285156 92.277344 188.140625 C 92.507812 188.023438 92.808594 188.046875 93.171875 188.214844 C 94.457031 189.136719 95.296875 189.632812 95.683594 189.695312 C 95.933594 189.8125 96.828125 189.972656 98.363281 190.167969 C 104.074219 190.597656 107.015625 190.796875 107.1875 190.765625 C 109.078125 190.679688 111.722656 190.609375 115.125 190.558594 C 115.519531 190.546875 115.84375 190.589844 116.101562 190.691406 C 116.570312 190.875 116.667969 191.351562 116.394531 192.125 C 114.832031 194.398438 113.824219 196.203125 113.363281 197.539062 Z M 97.140625 205.035156 " fill-opacity="1" fill-rule="nonzero"/><path fill="#1b2c44" d="M 84.132812 238.640625 L 98.644531 238.644531 L 113.15625 238.644531 C 113.15625 243.226562 113.15625 247.804688 113.15625 252.382812 C 103.480469 252.386719 93.808594 252.386719 84.132812 252.390625 C 84.132812 247.804688 84.132812 243.222656 84.132812 238.640625 " fill-opacity="1" fill-rule="nonzero"/><path fill="#1b2c44" d="M 73.59375 257.519531 L 96.242188 257.523438 L 118.894531 257.527344 C 118.894531 262.015625 118.894531 266.507812 118.894531 270.996094 C 103.792969 271 88.691406 271 73.59375 271.003906 C 73.59375 266.507812 73.59375 262.015625 73.59375 257.519531 " fill-opacity="1" fill-rule="nonzero"/><path fill="#1b2c44" d="M 98.542969 222.09375 L 108.652344 222.097656 L 118.757812 222.101562 C 118.757812 225.679688 118.757812 229.257812 118.757812 232.835938 C 112.019531 232.839844 105.28125 232.839844 98.542969 232.839844 C 98.542969 229.257812 98.542969 225.675781 98.542969 222.09375 " fill-opacity="1" fill-rule="nonzero"/><path fill="#1b2c44" d="M 99.277344 204.75 L 109.152344 204.75 L 119.027344 204.753906 C 119.027344 209.265625 119.027344 213.78125 119.027344 218.292969 C 112.445312 218.292969 105.859375 218.296875 99.277344 218.296875 C 99.277344 213.78125 99.277344 209.265625 99.277344 204.75 " fill-opacity="1" fill-rule="nonzero"/><path fill="#1b2c44" d="M 104.6875 168.683594 L 112.332031 168.6875 L 119.976562 168.6875 C 119.976562 172.175781 119.976562 175.660156 119.976562 179.144531 C 114.882812 179.148438 109.785156 179.148438 104.6875 179.152344 C 104.6875 175.660156 104.6875 172.171875 104.6875 168.683594 " fill-opacity="1" fill-rule="nonzero"/><path fill="#1b2c44" d="M 98.324219 195.3125 L 118.003906 195.320312 C 118.003906 197.707031 118.003906 200.09375 118.003906 202.484375 C 111.441406 202.484375 104.882812 202.488281 98.324219 202.488281 C 98.324219 200.097656 98.324219 197.707031 98.324219 195.3125 " fill-opacity="1" fill-rule="nonzero"/><path fill="#1b2c44" d="M 109.371094 147.46875 L 114.855469 147.46875 L 120.34375 147.472656 C 120.34375 149.398438 120.34375 151.320312 120.34375 153.246094 C 116.6875 153.25 113.027344 153.25 109.371094 153.253906 C 109.371094 151.324219 109.371094 149.394531 109.371094 147.46875 " fill-opacity="1" fill-rule="nonzero"/><g transform="matrix(1, 0, 0, 1, 131, 93)"><g clip-path="url(#b7a7e387aa)"><g fill="#1b2c44" fill-opacity="1"><g transform="translate(0.672691, 47.74515)"><g><path d="M 41.234375 -32.40625 L 41.234375 0 L 31.125 0 L 31.125 -16.15625 L 26.125 0 L 17.4375 0 L 12.453125 -16.15625 L 12.453125 0 L 2.28125 0 L 2.28125 -32.40625 L 14.734375 -32.40625 L 21.875 -12.953125 L 28.828125 -32.40625 Z M 41.234375 -32.40625 "/></g></g></g><g fill="#1b2c44" fill-opacity="1"><g transform="translate(44.191524, 47.74515)"><g><path d="M 23.0625 -4.890625 L 12.265625 -4.890625 L 10.65625 0 L 0 0 L 11.859375 -32.40625 L 23.5625 -32.40625 L 35.375 0 L 24.671875 0 Z M 20.59375 -12.546875 L 17.671875 -21.5625 L 14.734375 -12.546875 Z M 20.59375 -12.546875 "/></g></g></g><g fill="#1b2c44" fill-opacity="1"><g transform="translate(79.564877, 47.74515)"><g><path d="M 18.578125 0 L 12.5 -11.625 L 12.453125 -11.625 L 12.453125 0 L 2.28125 0 L 2.28125 -32.40625 L 17.390625 -32.40625 C 20.015625 -32.40625 22.253906 -31.9375 24.109375 -31 C 25.972656 -30.070312 27.367188 -28.804688 28.296875 -27.203125 C 29.234375 -25.609375 29.703125 -23.800781 29.703125 -21.78125 C 29.703125 -19.613281 29.097656 -17.691406 27.890625 -16.015625 C 26.691406 -14.335938 24.960938 -13.132812 22.703125 -12.40625 L 29.75 0 Z M 12.453125 -18.390625 L 16.46875 -18.390625 C 17.445312 -18.390625 18.179688 -18.609375 18.671875 -19.046875 C 19.160156 -19.492188 19.40625 -20.191406 19.40625 -21.140625 C 19.40625 -21.992188 19.148438 -22.664062 18.640625 -23.15625 C 18.140625 -23.644531 17.414062 -23.890625 16.46875 -23.890625 L 12.453125 -23.890625 Z M 12.453125 -18.390625 "/></g></g></g><g fill="#1b2c44" fill-opacity="1"><g transform="translate(110.224839, 47.74515)"><g><path d="M 22.15625 -21.328125 C 21.757812 -21.960938 21.191406 -22.457031 20.453125 -22.8125 C 19.722656 -23.164062 18.835938 -23.34375 17.796875 -23.34375 C 15.847656 -23.34375 14.335938 -22.707031 13.265625 -21.4375 C 12.203125 -20.175781 11.671875 -18.445312 11.671875 -16.25 C 11.671875 -13.71875 12.265625 -11.828125 13.453125 -10.578125 C 14.640625 -9.328125 16.472656 -8.703125 18.953125 -8.703125 C 21.296875 -8.703125 23.1875 -9.644531 24.625 -11.53125 L 16.515625 -11.53125 L 16.515625 -18.71875 L 33.046875 -18.71875 L 33.046875 -8.5625 C 31.640625 -6.144531 29.703125 -4.070312 27.234375 -2.34375 C 24.765625 -0.625 21.632812 0.234375 17.84375 0.234375 C 14.488281 0.234375 11.566406 -0.457031 9.078125 -1.84375 C 6.597656 -3.238281 4.691406 -5.1875 3.359375 -7.6875 C 2.035156 -10.1875 1.375 -13.039062 1.375 -16.25 C 1.375 -19.445312 2.035156 -22.296875 3.359375 -24.796875 C 4.691406 -27.304688 6.59375 -29.253906 9.0625 -30.640625 C 11.53125 -32.023438 14.425781 -32.71875 17.75 -32.71875 C 22 -32.71875 25.457031 -31.695312 28.125 -29.65625 C 30.789062 -27.613281 32.367188 -24.835938 32.859375 -21.328125 Z M 22.15625 -21.328125 "/></g></g></g><g fill="#1b2c44" fill-opacity="1"><g transform="translate(144.637212, 47.74515)"><g><path d="M 12.453125 -32.40625 L 12.453125 0 L 2.28125 0 L 2.28125 -32.40625 Z M 12.453125 -32.40625 "/></g></g></g><g fill="#1b2c44" fill-opacity="1"><g transform="translate(159.383358, 47.74515)"><g/></g></g><g fill="#1b2c44" fill-opacity="1"><g transform="translate(0.672691, 102.02482)"><g><path d="M 33.359375 0 L 23.203125 0 L 12.453125 -16.296875 L 12.453125 0 L 2.28125 0 L 2.28125 -32.40625 L 12.453125 -32.40625 L 23.203125 -15.828125 L 23.203125 -32.40625 L 33.359375 -32.40625 Z M 33.359375 0 "/></g></g></g><g fill="#1b2c44" fill-opacity="1"><g transform="translate(36.320618, 102.02482)"><g><path d="M 12.21875 -32.40625 L 12.21875 -14.140625 C 12.21875 -12.648438 12.546875 -11.46875 13.203125 -10.59375 C 13.859375 -9.726562 14.921875 -9.296875 16.390625 -9.296875 C 17.847656 -9.296875 18.925781 -9.726562 19.625 -10.59375 C 20.332031 -11.46875 20.6875 -12.648438 20.6875 -14.140625 L 20.6875 -32.40625 L 30.796875 -32.40625 L 30.796875 -14.140625 C 30.796875 -11.054688 30.15625 -8.421875 28.875 -6.234375 C 27.59375 -4.054688 25.835938 -2.414062 23.609375 -1.3125 C 21.390625 -0.21875 18.90625 0.328125 16.15625 0.328125 C 13.40625 0.328125 10.96875 -0.21875 8.84375 -1.3125 C 6.726562 -2.414062 5.078125 -4.050781 3.890625 -6.21875 C 2.703125 -8.382812 2.109375 -11.023438 2.109375 -14.140625 L 2.109375 -32.40625 Z M 12.21875 -32.40625 "/></g></g></g><g fill="#1b2c44" fill-opacity="1"><g transform="translate(69.222874, 102.02482)"><g><path d="M 14.96875 0.328125 C 11.09375 0.328125 7.894531 -0.578125 5.375 -2.390625 C 2.863281 -4.210938 1.5 -6.878906 1.28125 -10.390625 L 12.078125 -10.390625 C 12.234375 -8.523438 13.054688 -7.59375 14.546875 -7.59375 C 15.097656 -7.59375 15.5625 -7.722656 15.9375 -7.984375 C 16.320312 -8.242188 16.515625 -8.648438 16.515625 -9.203125 C 16.515625 -9.960938 16.101562 -10.578125 15.28125 -11.046875 C 14.457031 -11.523438 13.175781 -12.066406 11.4375 -12.671875 C 9.363281 -13.410156 7.644531 -14.128906 6.28125 -14.828125 C 4.925781 -15.523438 3.757812 -16.546875 2.78125 -17.890625 C 1.8125 -19.234375 1.34375 -20.957031 1.375 -23.0625 C 1.375 -25.164062 1.914062 -26.957031 3 -28.4375 C 4.082031 -29.914062 5.5625 -31.035156 7.4375 -31.796875 C 9.3125 -32.566406 11.425781 -32.953125 13.78125 -32.953125 C 17.738281 -32.953125 20.882812 -32.035156 23.21875 -30.203125 C 25.5625 -28.367188 26.789062 -25.789062 26.90625 -22.46875 L 15.96875 -22.46875 C 15.9375 -23.382812 15.707031 -24.039062 15.28125 -24.4375 C 14.851562 -24.832031 14.335938 -25.03125 13.734375 -25.03125 C 13.304688 -25.03125 12.953125 -24.882812 12.671875 -24.59375 C 12.398438 -24.3125 12.265625 -23.910156 12.265625 -23.390625 C 12.265625 -22.648438 12.664062 -22.046875 13.46875 -21.578125 C 14.28125 -21.109375 15.570312 -20.535156 17.34375 -19.859375 C 19.382812 -19.097656 21.066406 -18.363281 22.390625 -17.65625 C 23.722656 -16.957031 24.878906 -15.984375 25.859375 -14.734375 C 26.835938 -13.484375 27.328125 -11.910156 27.328125 -10.015625 C 27.328125 -8.035156 26.835938 -6.257812 25.859375 -4.6875 C 24.878906 -3.113281 23.457031 -1.882812 21.59375 -1 C 19.738281 -0.113281 17.53125 0.328125 14.96875 0.328125 Z M 14.96875 0.328125 "/></g></g></g><g fill="#1b2c44" fill-opacity="1"><g transform="translate(0.672691, 156.30449)"><g><path d="M 28.78125 -21.28125 C 28.78125 -19.238281 28.304688 -17.382812 27.359375 -15.71875 C 26.421875 -14.050781 25.023438 -12.726562 23.171875 -11.75 C 21.328125 -10.78125 19.09375 -10.296875 16.46875 -10.296875 L 12.453125 -10.296875 L 12.453125 0 L 2.28125 0 L 2.28125 -32.40625 L 16.46875 -32.40625 C 20.4375 -32.40625 23.476562 -31.394531 25.59375 -29.375 C 27.71875 -27.363281 28.78125 -24.664062 28.78125 -21.28125 Z M 15.328125 -18.3125 C 17.429688 -18.3125 18.484375 -19.300781 18.484375 -21.28125 C 18.484375 -23.257812 17.429688 -24.25 15.328125 -24.25 L 12.453125 -24.25 L 12.453125 -18.3125 Z M 15.328125 -18.3125 "/></g></g></g><g fill="#1b2c44" fill-opacity="1"><g transform="translate(30.371672, 156.30449)"><g><path d="M 12.453125 -24.296875 L 12.453125 -20.3125 L 22.515625 -20.3125 L 22.515625 -12.671875 L 12.453125 -12.671875 L 12.453125 -8.09375 L 23.890625 -8.09375 L 23.890625 0 L 2.28125 0 L 2.28125 -32.40625 L 23.890625 -32.40625 L 23.890625 -24.296875 Z M 12.453125 -24.296875 "/></g></g></g><g fill="#1b2c44" fill-opacity="1"><g transform="translate(55.814865, 156.30449)"><g><path d="M 33.359375 0 L 23.203125 0 L 12.453125 -16.296875 L 12.453125 0 L 2.28125 0 L 2.28125 -32.40625 L 12.453125 -32.40625 L 23.203125 -15.828125 L 23.203125 -32.40625 L 33.359375 -32.40625 Z M 33.359375 0 "/></g></g></g><g fill="#1b2c44" fill-opacity="1"><g transform="translate(91.462792, 156.30449)"><g><path d="M 12.453125 -32.40625 L 12.453125 0 L 2.28125 0 L 2.28125 -32.40625 Z M 12.453125 -32.40625 "/></g></g></g><g fill="#1b2c44" fill-opacity="1"><g transform="translate(106.197875, 156.30449)"><g><path d="M 15.796875 -32.40625 C 19.179688 -32.40625 22.144531 -31.71875 24.6875 -30.34375 C 27.238281 -28.96875 29.195312 -27.054688 30.5625 -24.609375 C 31.9375 -22.171875 32.625 -19.398438 32.625 -16.296875 C 32.625 -13.210938 31.9375 -10.429688 30.5625 -7.953125 C 29.195312 -5.484375 27.238281 -3.539062 24.6875 -2.125 C 22.144531 -0.707031 19.179688 0 15.796875 0 L 2.28125 0 L 2.28125 -32.40625 Z M 14.875 -9.0625 C 17.164062 -9.0625 18.976562 -9.6875 20.3125 -10.9375 C 21.65625 -12.1875 22.328125 -13.972656 22.328125 -16.296875 C 22.328125 -18.609375 21.65625 -20.390625 20.3125 -21.640625 C 18.976562 -22.898438 17.164062 -23.53125 14.875 -23.53125 L 12.453125 -23.53125 L 12.453125 -9.0625 Z M 14.875 -9.0625 "/></g></g></g><g fill="#1b2c44" fill-opacity="1"><g transform="translate(140.198393, 156.30449)"><g><path d="M 23.0625 -4.890625 L 12.265625 -4.890625 L 10.65625 0 L 0 0 L 11.859375 -32.40625 L 23.5625 -32.40625 L 35.375 0 L 24.671875 0 Z M 20.59375 -12.546875 L 17.671875 -21.5625 L 14.734375 -12.546875 Z M 20.59375 -12.546875 "/></g></g></g></g></g><g transform="matrix(1, 0, 0, 1, 131, 257)"><g clip-path="url(#0ec3fafd99)"><g fill="#1b2c44" fill-opacity="1"><g transform="translate(0.672691, 16.47171)"><g><path d="M 8.578125 -10.625 L 8.578125 -8.546875 L 5.765625 -8.546875 L 5.765625 0 L 3.171875 0 L 3.171875 -8.546875 L 0.359375 -8.546875 L 0.359375 -10.625 Z M 8.578125 -10.625 "/></g></g></g><g fill="#1b2c44" fill-opacity="1"><g transform="translate(9.605635, 16.47171)"><g><path d="M 3.53125 -10.625 L 3.53125 0 L 0.9375 0 L 0.9375 -10.625 Z M 3.53125 -10.625 "/></g></g></g><g fill="#1b2c44" fill-opacity="1"><g transform="translate(14.064554, 16.47171)"><g><path d="M 6.359375 0 L 4.140625 -4.015625 L 3.53125 -4.015625 L 3.53125 0 L 0.9375 0 L 0.9375 -10.625 L 5.28125 -10.625 C 6.113281 -10.625 6.820312 -10.472656 7.40625 -10.171875 C 8 -9.878906 8.441406 -9.476562 8.734375 -8.96875 C 9.035156 -8.46875 9.1875 -7.90625 9.1875 -7.28125 C 9.1875 -6.570312 8.984375 -5.9375 8.578125 -5.375 C 8.179688 -4.820312 7.597656 -4.429688 6.828125 -4.203125 L 9.265625 0 Z M 3.53125 -5.84375 L 5.125 -5.84375 C 5.601562 -5.84375 5.957031 -5.957031 6.1875 -6.1875 C 6.425781 -6.414062 6.546875 -6.742188 6.546875 -7.171875 C 6.546875 -7.578125 6.425781 -7.894531 6.1875 -8.125 C 5.957031 -8.351562 5.601562 -8.46875 5.125 -8.46875 L 3.53125 -8.46875 Z M 3.53125 -5.84375 "/></g></g></g><g fill="#1b2c44" fill-opacity="1"><g transform="translate(23.919518, 16.47171)"><g><path d="M 8.578125 -10.625 L 8.578125 -8.546875 L 5.765625 -8.546875 L 5.765625 0 L 3.171875 0 L 3.171875 -8.546875 L 0.359375 -8.546875 L 0.359375 -10.625 Z M 8.578125 -10.625 "/></g></g></g><g fill="#1b2c44" fill-opacity="1"><g transform="translate(32.852462, 16.47171)"><g><path d="M 7.546875 -1.875 L 3.578125 -1.875 L 2.953125 0 L 0.234375 0 L 4.078125 -10.625 L 7.078125 -10.625 L 10.921875 0 L 8.1875 0 Z M 6.875 -3.875 L 5.5625 -7.765625 L 4.265625 -3.875 Z M 6.875 -3.875 "/></g></g></g><g fill="#1b2c44" fill-opacity="1"><g transform="translate(43.992197, 16.47171)"><g/></g></g><g fill="#1b2c44" fill-opacity="1"><g transform="translate(47.196576, 16.47171)"><g><path d="M 10.046875 -10.625 L 6.375 -3.515625 L 6.375 0 L 3.78125 0 L 3.78125 -3.515625 L 0.109375 -10.625 L 3.046875 -10.625 L 5.09375 -6.171875 L 7.140625 -10.625 Z M 10.046875 -10.625 "/></g></g></g><g fill="#1b2c44" fill-opacity="1"><g transform="translate(57.338722, 16.47171)"><g><path d="M 7.546875 -1.875 L 3.578125 -1.875 L 2.953125 0 L 0.234375 0 L 4.078125 -10.625 L 7.078125 -10.625 L 10.921875 0 L 8.1875 0 Z M 6.875 -3.875 L 5.5625 -7.765625 L 4.265625 -3.875 Z M 6.875 -3.875 "/></g></g></g><g fill="#1b2c44" fill-opacity="1"><g transform="translate(68.478457, 16.47171)"><g><path d="M 8.578125 -10.625 L 8.578125 -8.546875 L 5.765625 -8.546875 L 5.765625 0 L 3.171875 0 L 3.171875 -8.546875 L 0.359375 -8.546875 L 0.359375 -10.625 Z M 8.578125 -10.625 "/></g></g></g><g fill="#1b2c44" fill-opacity="1"><g transform="translate(77.411401, 16.47171)"><g><path d="M 6.359375 0 L 4.140625 -4.015625 L 3.53125 -4.015625 L 3.53125 0 L 0.9375 0 L 0.9375 -10.625 L 5.28125 -10.625 C 6.113281 -10.625 6.820312 -10.472656 7.40625 -10.171875 C 8 -9.878906 8.441406 -9.476562 8.734375 -8.96875 C 9.035156 -8.46875 9.1875 -7.90625 9.1875 -7.28125 C 9.1875 -6.570312 8.984375 -5.9375 8.578125 -5.375 C 8.179688 -4.820312 7.597656 -4.429688 6.828125 -4.203125 L 9.265625 0 Z M 3.53125 -5.84375 L 5.125 -5.84375 C 5.601562 -5.84375 5.957031 -5.957031 6.1875 -6.1875 C 6.425781 -6.414062 6.546875 -6.742188 6.546875 -7.171875 C 6.546875 -7.578125 6.425781 -7.894531 6.1875 -8.125 C 5.957031 -8.351562 5.601562 -8.46875 5.125 -8.46875 L 3.53125 -8.46875 Z M 3.53125 -5.84375 "/></g></g></g><g fill="#1b2c44" fill-opacity="1"><g transform="translate(87.266365, 16.47171)"><g><path d="M 7.546875 -1.875 L 3.578125 -1.875 L 2.953125 0 L 0.234375 0 L 4.078125 -10.625 L 7.078125 -10.625 L 10.921875 0 L 8.1875 0 Z M 6.875 -3.875 L 5.5625 -7.765625 L 4.265625 -3.875 Z M 6.875 -3.875 "/></g></g></g><g fill="#1b2c44" fill-opacity="1"><g transform="translate(98.4061, 16.47171)"><g/></g></g><g fill="#1b2c44" fill-opacity="1"><g transform="translate(101.610479, 16.47171)"><g><path d="M 9.0625 0 L 8.078125 -0.953125 C 7.097656 -0.203125 5.925781 0.171875 4.5625 0.171875 C 3.75 0.171875 3.039062 0.0351562 2.4375 -0.234375 C 1.832031 -0.503906 1.363281 -0.882812 1.03125 -1.375 C 0.707031 -1.863281 0.546875 -2.429688 0.546875 -3.078125 C 0.546875 -3.742188 0.722656 -4.347656 1.078125 -4.890625 C 1.441406 -5.429688 1.976562 -5.875 2.6875 -6.21875 C 2.425781 -6.539062 2.238281 -6.847656 2.125 -7.140625 C 2.019531 -7.441406 1.96875 -7.769531 1.96875 -8.125 C 1.96875 -8.625 2.097656 -9.082031 2.359375 -9.5 C 2.617188 -9.914062 3 -10.238281 3.5 -10.46875 C 4 -10.707031 4.59375 -10.828125 5.28125 -10.828125 C 5.976562 -10.828125 6.566406 -10.703125 7.046875 -10.453125 C 7.535156 -10.203125 7.898438 -9.863281 8.140625 -9.4375 C 8.378906 -9.007812 8.488281 -8.546875 8.46875 -8.046875 L 6.03125 -8.046875 C 6.039062 -8.316406 5.972656 -8.523438 5.828125 -8.671875 C 5.679688 -8.816406 5.488281 -8.890625 5.25 -8.890625 C 5.007812 -8.890625 4.804688 -8.816406 4.640625 -8.671875 C 4.484375 -8.535156 4.40625 -8.359375 4.40625 -8.140625 C 4.40625 -7.921875 4.472656 -7.695312 4.609375 -7.46875 C 4.742188 -7.238281 4.957031 -6.972656 5.25 -6.671875 L 7.828125 -4.140625 C 7.847656 -4.191406 7.875 -4.253906 7.90625 -4.328125 C 7.945312 -4.398438 7.988281 -4.476562 8.03125 -4.5625 L 8.59375 -5.515625 L 11.171875 -5.515625 L 10.453125 -4.203125 C 10.179688 -3.609375 9.867188 -3.046875 9.515625 -2.515625 L 12.0625 0 Z M 4.6875 -1.921875 C 5.363281 -1.921875 5.960938 -2.113281 6.484375 -2.5 L 4.125 -4.78125 C 3.40625 -4.40625 3.046875 -3.898438 3.046875 -3.265625 C 3.046875 -2.878906 3.191406 -2.554688 3.484375 -2.296875 C 3.785156 -2.046875 4.1875 -1.921875 4.6875 -1.921875 Z M 4.6875 -1.921875 "/></g></g></g><g fill="#1b2c44" fill-opacity="1"><g transform="translate(113.672234, 16.47171)"><g/></g></g><g fill="#1b2c44" fill-opacity="1"><g transform="translate(116.876614, 16.47171)"><g><path d="M 8.578125 -10.625 L 8.578125 -8.546875 L 5.765625 -8.546875 L 5.765625 0 L 3.171875 0 L 3.171875 -8.546875 L 0.359375 -8.546875 L 0.359375 -10.625 Z M 8.578125 -10.625 "/></g></g></g><g fill="#1b2c44" fill-opacity="1"><g transform="translate(125.809558, 16.47171)"><g><path d="M 6.359375 0 L 4.140625 -4.015625 L 3.53125 -4.015625 L 3.53125 0 L 0.9375 0 L 0.9375 -10.625 L 5.28125 -10.625 C 6.113281 -10.625 6.820312 -10.472656 7.40625 -10.171875 C 8 -9.878906 8.441406 -9.476562 8.734375 -8.96875 C 9.035156 -8.46875 9.1875 -7.90625 9.1875 -7.28125 C 9.1875 -6.570312 8.984375 -5.9375 8.578125 -5.375 C 8.179688 -4.820312 7.597656 -4.429688 6.828125 -4.203125 L 9.265625 0 Z M 3.53125 -5.84375 L 5.125 -5.84375 C 5.601562 -5.84375 5.957031 -5.957031 6.1875 -6.1875 C 6.425781 -6.414062 6.546875 -6.742188 6.546875 -7.171875 C 6.546875 -7.578125 6.425781 -7.894531 6.1875 -8.125 C 5.957031 -8.351562 5.601562 -8.46875 5.125 -8.46875 L 3.53125 -8.46875 Z M 3.53125 -5.84375 "/></g></g></g><g fill="#1b2c44" fill-opacity="1"><g transform="translate(135.664522, 16.47171)"><g><path d="M 7.546875 -1.875 L 3.578125 -1.875 L 2.953125 0 L 0.234375 0 L 4.078125 -10.625 L 7.078125 -10.625 L 10.921875 0 L 8.1875 0 Z M 6.875 -3.875 L 5.5625 -7.765625 L 4.265625 -3.875 Z M 6.875 -3.875 "/></g></g></g><g fill="#1b2c44" fill-opacity="1"><g transform="translate(146.804257, 16.47171)"><g><path d="M 10.90625 -10.625 L 7.140625 0 L 3.90625 0 L 0.140625 -10.625 L 2.890625 -10.625 L 5.515625 -2.59375 L 8.171875 -10.625 Z M 10.90625 -10.625 "/></g></g></g><g fill="#1b2c44" fill-opacity="1"><g transform="translate(157.838193, 16.47171)"><g><path d="M 3.53125 -8.546875 L 3.53125 -6.390625 L 6.984375 -6.390625 L 6.984375 -4.40625 L 3.53125 -4.40625 L 3.53125 -2.078125 L 7.4375 -2.078125 L 7.4375 0 L 0.9375 0 L 0.9375 -10.625 L 7.4375 -10.625 L 7.4375 -8.546875 Z M 3.53125 -8.546875 "/></g></g></g><g fill="#1b2c44" fill-opacity="1"><g transform="translate(166.015392, 16.47171)"><g><path d="M 3.53125 -2 L 6.90625 -2 L 6.90625 0 L 0.9375 0 L 0.9375 -10.625 L 3.53125 -10.625 Z M 3.53125 -2 "/></g></g></g></g></g><g clip-path="url(#081a085dee)"><path fill="#1b2c44" d="M 259.285156 187.691406 L 259.242188 187.679688 C 256.730469 187.101562 254.140625 186.8125 251.554688 186.8125 C 249.152344 186.8125 246.742188 187.0625 244.402344 187.5625 L 244.171875 187.613281 L 244.273438 187.359375 C 246.773438 181.292969 247.085938 174.503906 245.15625 168.238281 L 243.523438 162.933594 C 253.234375 167.402344 259.351562 177.035156 259.285156 187.691406 " fill-opacity="1" fill-rule="nonzero"/></g><path fill="#1b2c44" d="M 233.355469 187.117188 C 236.132812 181.566406 238.179688 175.671875 239.445312 169.597656 L 240.320312 165.394531 C 244.164062 172.296875 244.1875 180.769531 240.394531 187.6875 C 239.089844 187.203125 237.707031 186.960938 236.328125 186.960938 C 235.285156 186.960938 234.238281 187.101562 233.226562 187.378906 L 233.355469 187.117188 " fill-opacity="1" fill-rule="nonzero"/><g clip-path="url(#4605f30264)"><path fill="#1b2c44" d="M 240.425781 192.1875 C 242.691406 192.1875 244.957031 191.925781 247.164062 191.417969 L 248.710938 191.0625 C 250.828125 190.574219 253 190.328125 255.171875 190.328125 L 261.242188 190.328125 L 258.785156 194.183594 C 258.101562 195.261719 256.925781 195.90625 255.648438 195.90625 L 235.566406 195.90625 C 234.707031 195.90625 233.917969 195.472656 233.460938 194.742188 L 231.867188 192.1875 L 240.425781 192.1875 " fill-opacity="1" fill-rule="nonzero"/></g></svg>